<svg width="59" height="59" viewBox="0 0 59 59" fill="none" xmlns="http://www.w3.org/2000/svg">
<g filter="url(#filter0_d_178_188)">
<rect x="4" width="51" height="51" rx="25.5" fill="white" fill-opacity="0.91" shape-rendering="crispEdges"/>
<path d="M16.3834 33V22.59L13.2234 23.71L12.3534 21.12L19.2034 18.7H19.4234V33H16.3834ZM27.5427 33.3C26.4427 33.3 25.4993 33.1167 24.7127 32.75C23.9327 32.3767 23.336 31.8733 22.9227 31.24C22.5093 30.6067 22.3027 29.8933 22.3027 29.1C22.3027 28.54 22.3993 28.0367 22.5927 27.59C22.7927 27.1433 23.076 26.7533 23.4427 26.42C23.816 26.0867 24.2627 25.8167 24.7827 25.61C24.2893 25.39 23.836 25.0267 23.4227 24.52C23.0093 24.0133 22.8027 23.3633 22.8027 22.57C22.8027 21.8233 23.0093 21.16 23.4227 20.58C23.836 19.9933 24.406 19.5333 25.1327 19.2C25.8593 18.8667 26.686 18.7 27.6127 18.7C28.5593 18.7 29.396 18.87 30.1227 19.21C30.856 19.5433 31.4293 20.0033 31.8427 20.59C32.256 21.17 32.4627 21.83 32.4627 22.57C32.4627 23.1033 32.366 23.57 32.1727 23.97C31.986 24.37 31.7393 24.7067 31.4327 24.98C31.1327 25.2533 30.8193 25.4633 30.4927 25.61C31.2127 25.9167 31.7993 26.37 32.2527 26.97C32.706 27.5633 32.9327 28.2733 32.9327 29.1C32.9327 29.8933 32.7027 30.6067 32.2427 31.24C31.7827 31.8733 31.146 32.3767 30.3327 32.75C29.526 33.1167 28.596 33.3 27.5427 33.3ZM27.6127 30.72C27.9993 30.72 28.3627 30.6467 28.7027 30.5C29.0427 30.3467 29.3193 30.1267 29.5327 29.84C29.7527 29.5467 29.8627 29.1867 29.8627 28.76C29.8627 28.3333 29.7593 27.9767 29.5527 27.69C29.3527 27.4033 29.0827 27.1867 28.7427 27.04C28.4027 26.8867 28.026 26.81 27.6127 26.81C26.9927 26.81 26.4627 26.98 26.0227 27.32C25.5893 27.6533 25.3727 28.1333 25.3727 28.76C25.3727 29.1867 25.476 29.5467 25.6827 29.84C25.8893 30.1267 26.1627 30.3467 26.5027 30.5C26.8493 30.6467 27.2193 30.72 27.6127 30.72ZM27.6327 24.33C28.0127 24.33 28.3527 24.26 28.6527 24.12C28.9527 23.98 29.186 23.7833 29.3527 23.53C29.5193 23.2767 29.6027 22.9867 29.6027 22.66C29.6027 22.1667 29.4193 21.7567 29.0527 21.43C28.686 21.1033 28.2127 20.94 27.6327 20.94C27.2527 20.94 26.9127 21.0167 26.6127 21.17C26.3193 21.3167 26.0893 21.52 25.9227 21.78C25.756 22.04 25.6727 22.3333 25.6727 22.66C25.6727 23.1533 25.856 23.5567 26.2227 23.87C26.596 24.1767 27.066 24.33 27.6327 24.33ZM39.0678 31.62V27.44H34.7178V25.19H39.0678V21H41.4178V25.19H45.7578V27.44H41.4178V31.62H39.0678Z" fill="#1E391B"/>
</g>
<defs>
<filter id="filter0_d_178_188" x="0" y="0" width="59" height="59" filterUnits="userSpaceOnUse" color-interpolation-filters="sRGB">
<feFlood flood-opacity="0" result="BackgroundImageFix"/>
<feColorMatrix in="SourceAlpha" type="matrix" values="0 0 0 0 0 0 0 0 0 0 0 0 0 0 0 0 0 0 127 0" result="hardAlpha"/>
<feOffset dy="4"/>
<feGaussianBlur stdDeviation="2"/>
<feComposite in2="hardAlpha" operator="out"/>
<feColorMatrix type="matrix" values="0 0 0 0 0 0 0 0 0 0 0 0 0 0 0 0 0 0 0.25 0"/>
<feBlend mode="normal" in2="BackgroundImageFix" result="effect1_dropShadow_178_188"/>
<feBlend mode="normal" in="SourceGraphic" in2="effect1_dropShadow_178_188" result="shape"/>
</filter>
</defs>
</svg>
