<svg width="32" height="29" viewBox="0 0 32 29" fill="none" xmlns="http://www.w3.org/2000/svg">
<path d="M15.25 8.5H28.294C29.2312 8.5 29.6997 8.5 30.0428 8.65127C31.5604 9.32036 30.8819 11.0061 30.6266 12.2176C30.5807 12.4352 30.4315 12.6206 30.2224 12.7198C29.3549 13.1315 28.7473 13.9122 28.5879 14.8201L27.699 19.8817C27.3079 22.1087 27.1742 25.2914 25.2226 26.8604C23.7907 28 21.7276 28 17.6013 28H14.3987C10.2724 28 8.2093 28 6.7774 26.8604C4.82578 25.2914 4.69207 22.1087 4.30099 19.8817L3.4121 14.8201C3.25266 13.9122 2.64509 13.1315 1.77762 12.7198C1.56845 12.6206 1.41927 12.4352 1.37341 12.2176C1.11812 11.0061 0.439606 9.32036 1.95718 8.65127C2.30026 8.5 2.76883 8.5 3.70596 8.5H9.25" stroke="white" stroke-width="1.5" stroke-linecap="round"/>
<path opacity="0.4" d="M19 14.5002L13 14.5002" stroke="white" stroke-width="1.5" stroke-linecap="round" stroke-linejoin="round"/>
<path d="M7.75 13L13 1" stroke="white" stroke-width="1.5" stroke-linecap="round"/>
<path opacity="0.4" d="M20.5 1L24.25 8.5" stroke="white" stroke-width="1.5" stroke-linecap="round"/>
</svg>
