<svg width="34" height="28" viewBox="0 0 34 28" fill="none" xmlns="http://www.w3.org/2000/svg">
<path d="M23.9809 0.652964C22.6523 0.64585 21.3384 0.931012 20.1322 1.48824C18.926 2.04548 17.8572 2.86114 17.0014 3.87745C16.1512 2.85456 15.0834 2.0343 13.876 1.47646C12.6685 0.918632 11.3518 0.637294 10.0218 0.652964C7.59693 0.652964 5.27141 1.61623 3.55679 3.33085C1.84217 5.04546 0.878906 7.37099 0.878906 9.79582C0.878906 18.4489 15.9809 26.8979 16.5932 27.2244C16.714 27.3051 16.8561 27.3482 17.0014 27.3482C17.1467 27.3482 17.2887 27.3051 17.4095 27.2244C18.0218 26.8979 33.1238 18.5713 33.1238 9.79582C33.1238 7.37099 32.1605 5.04546 30.4459 3.33085C28.7313 1.61623 26.4058 0.652964 23.9809 0.652964ZM17.0014 25.5917C14.634 24.204 2.51156 16.8162 2.51156 9.79582C2.51156 7.80399 3.30281 5.89374 4.71125 4.48531C6.11968 3.07687 8.02993 2.28562 10.0218 2.28562C11.2711 2.26922 12.504 2.57172 13.6039 3.16451C14.7037 3.7573 15.6343 4.6208 16.3075 5.67337C16.387 5.78298 16.4913 5.87219 16.6119 5.93371C16.7325 5.99523 16.866 6.0273 17.0014 6.0273C17.1367 6.0273 17.2702 5.99523 17.3908 5.93371C17.5114 5.87219 17.6157 5.78298 17.6952 5.67337C18.5811 4.31863 19.8809 3.28634 21.401 2.73029C22.9212 2.17425 24.5803 2.12422 26.1312 2.58765C27.6821 3.05108 29.0417 4.00318 30.0076 5.30208C30.9735 6.60098 31.4938 8.17717 31.4912 9.79582C31.4912 16.8979 19.3687 24.2448 17.0014 25.5917Z" fill="#EBE6E3"/>
</svg>
