<svg width="36" height="36" viewBox="0 0 36 36" fill="none" xmlns="http://www.w3.org/2000/svg">
<path d="M34.6667 17.278C34.6667 26.0833 27.2037 33.2225 18 33.2225C16.9179 33.2239 15.8388 33.1239 14.7757 32.9243C14.0106 32.7806 13.628 32.7087 13.3609 32.7495C13.0938 32.7903 12.7153 32.9916 11.9583 33.3941C9.81694 34.5329 7.31996 34.9351 4.91856 34.4885C5.83127 33.3658 6.45462 32.0188 6.72967 30.5748C6.89634 29.6916 6.48337 28.8335 5.86486 28.2053C3.0556 25.3527 1.33337 21.5086 1.33337 17.278C1.33337 8.47278 8.79634 1.3335 18 1.3335C27.2037 1.3335 34.6667 8.47278 34.6667 17.278Z" stroke="white" stroke-width="1.5" stroke-linejoin="round"/>
<path opacity="0.4" d="M17.9926 18H18.0075M24.6518 18H24.6667M11.3334 18H11.3483" stroke="white" stroke-width="2" stroke-linecap="round" stroke-linejoin="round"/>
</svg>
