<svg xmlns="http://www.w3.org/2000/svg" width="54.768" height="54.77" viewBox="0 0 54.768 54.77">
  <path id="ico-benefit" d="M5389.172,3030.906l-1.57.788-2.334-4.649,1.569-.788Zm5.9-13.665,4.648,2.334-.787,1.569-4.649-2.334Zm1.63,10.194-1.241,1.241-5.346-5.344,1.242-1.241Zm-37.982-36.748a7.095,7.095,0,1,1,0,10.032A7.048,7.048,0,0,1,5358.723,2990.688Zm1.242,8.792a5.339,5.339,0,1,0,0-7.551A5.308,5.308,0,0,0,5359.965,2999.479Zm-14.875-21.62.062-.74.741-.062c13.415-1.115,25.1,4.781,35.454,17.954a13.222,13.222,0,0,1,17.594,9.479l.1.471-4.558,4.557-.592-.369a11.412,11.412,0,0,0-5.123-1.685l-2.459,2.46a16.9,16.9,0,0,1,6.375,3.985l.638.621-10.771,10.767-.62-.638a16.875,16.875,0,0,1-3.986-6.375l-2.446,2.446a11.41,11.41,0,0,0,1.685,5.123l.369.591L5373,3031l-.471-.105a13.22,13.22,0,0,1-9.482-17.59C5349.871,3002.953,5343.973,2991.275,5345.089,2977.859Zm1.695.893a33.556,33.556,0,0,0,.607,8.92l8.313-8.311A33.616,33.616,0,0,0,5346.784,2978.752Zm47.435,28.553,2.894-2.894a11.474,11.474,0,0,0-14.647-7.94,97.436,97.436,0,0,1,6.071,9.217A13.155,13.155,0,0,1,5394.219,3007.3Zm-11.63,15.477,8.222-8.22a14.67,14.67,0,0,0-5.906-3.231l-5.547,5.546A14.668,14.668,0,0,0,5382.588,3022.782Zm-15.29,3.315a11.474,11.474,0,0,0,5.151,2.972l2.893-2.893a13.171,13.171,0,0,1-1.618-5.68,97.432,97.432,0,0,1-9.218-6.07A11.447,11.447,0,0,0,5367.3,3026.1Zm7.41-7.055,12.375-12.372c-8.731-14.965-18.418-23.83-29.376-26.83l-9.836,9.834C5350.871,3000.628,5359.742,3010.314,5374.709,3019.042Z" transform="translate(-5344.956 -2976.924)" fill="#c29f32"/>
</svg>
