<svg xmlns="http://www.w3.org/2000/svg" width="67.928" height="41.629" viewBox="0 0 67.928 41.629">
  <path id="ico-benefit3" d="M6428.852,3009.185h-9.775v1.652H6430.5v-29.555h-33.24v1.652h31.593Zm-20.835-14.3h-14.468v1.652h14.468Zm-17.991,8.8h9.937v-1.653h-9.937Zm9.937,5.5H6386v1.652h13.964Zm48.689-7.449-7.015-12.776h-8.22v1.652h7.247l6.048,11.017h-13.295v1.652h14.614l4.249,2.381v9.7h-3.971a6.7,6.7,0,0,0-13.307,0H6417.22a6.7,6.7,0,0,0-13.306,0h-9.13v1.652h9.13a6.7,6.7,0,0,0,13.3,0H6435a6.7,6.7,0,0,0,13.306,0h5.619v-12.316Zm-38.084,19.523a5.076,5.076,0,1,1,5.061-5.076A5.074,5.074,0,0,1,6410.567,3021.259Zm31.087,0a5.076,5.076,0,1,1,5.062-5.076A5.074,5.074,0,0,1,6441.655,3021.259Zm-40.182-33.531H6387v1.652h14.468Z" transform="translate(-6385.998 -2981.282)" fill="#c29f32"/>
</svg>
