<svg xmlns="http://www.w3.org/2000/svg" width="44.633" height="56.462" viewBox="0 0 44.633 56.462">
  <path id="ico-benefit2" d="M5900.682,3015.6l2.7,6.887-6.393-1.4-3.75,5.352-2.62-6.687-1.548.6,3.75,9.573,4.895-6.985,8.343,1.822L5902.23,3015Zm-19.9,10.844-3.75-5.352-6.393,1.4,2.7-6.887-1.548-.6-3.828,9.772,8.343-1.822,4.9,6.985,3.75-9.573-1.548-.6Zm6.19-44.24a13.552,13.552,0,1,0,13.581,13.552A13.581,13.581,0,0,0,5886.969,2982.2Zm0,25.446a11.894,11.894,0,1,1,11.919-11.894A11.92,11.92,0,0,1,5886.969,3007.649Zm-1.289-9.059-4.81-4.8-1.175,1.172,5.984,5.971,8.563-8.545-1.175-1.172Zm22.464-.721a5.479,5.479,0,0,1-.893-2.154,5.625,5.625,0,0,1,.909-2.253c.668-1.2,1.359-2.432,1.016-3.7-.349-1.284-1.581-2.009-2.772-2.709a3.156,3.156,0,0,1-2.222-3.825c-.017-1.381-.034-2.808-.978-3.748-.928-.926-2.346-.941-3.717-.955a5.645,5.645,0,0,1-2.41-.331,5.463,5.463,0,0,1-1.429-1.843c-.681-1.145-1.452-2.443-2.77-2.793s-2.632.4-3.792,1.051a5.481,5.481,0,0,1-2.157.892h0a5.66,5.66,0,0,1-2.254-.907c-1.2-.668-2.436-1.356-3.7-1.015-1.286.348-2.011,1.578-2.713,2.768a3.16,3.16,0,0,1-3.83,2.218c-1.383.017-2.814.035-3.754.977s-.943,2.343-.958,3.712a5.623,5.623,0,0,1-.331,2.406,5.472,5.472,0,0,1-1.846,1.426c-1.147.68-2.447,1.45-2.8,2.766s.4,2.628,1.053,3.787a5.489,5.489,0,0,1,.893,2.154,5.625,5.625,0,0,1-.909,2.253c-.668,1.2-1.359,2.431-1.017,3.7.349,1.284,1.582,2.008,2.772,2.709a3.154,3.154,0,0,1,2.222,3.825c.017,1.381.035,2.809.978,3.748s2.348.941,3.718.955a5.648,5.648,0,0,1,2.41.331,5.456,5.456,0,0,1,1.429,1.843c.681,1.145,1.452,2.443,2.77,2.793a2.7,2.7,0,0,0,.7.09,6.689,6.689,0,0,0,3.095-1.14,5.472,5.472,0,0,1,2.157-.892h0a5.654,5.654,0,0,1,2.254.907c1.2.667,2.434,1.36,3.7,1.014,1.286-.348,2.012-1.578,2.713-2.769a3.16,3.16,0,0,1,3.83-2.218c1.383-.017,2.813-.034,3.754-.977s.942-2.343.957-3.712a5.624,5.624,0,0,1,.331-2.407,5.469,5.469,0,0,1,1.846-1.427c1.146-.679,2.446-1.45,2.8-2.765S5908.8,2999.027,5908.144,2997.869Zm-.553,3.361c-.176.661-1.124,1.223-2.04,1.765a6.441,6.441,0,0,0-2.439,2.028,6.62,6.62,0,0,0-.552,3.214c-.011,1.037-.022,2.109-.472,2.559s-1.548.477-2.6.49a4.66,4.66,0,0,0-5.241,3.035c-.532.9-1.083,1.837-1.716,2.01-.616.163-1.551-.357-2.457-.862a6.641,6.641,0,0,0-3.064-1.118h0a6.437,6.437,0,0,0-2.975,1.107c-.926.524-1.885,1.064-2.545.891s-1.224-1.122-1.768-2.037a6.429,6.429,0,0,0-2.03-2.436,6.649,6.649,0,0,0-3.22-.551c-1.039-.011-2.112-.022-2.562-.47s-.477-1.547-.49-2.6a4.651,4.651,0,0,0-3.039-5.233c-.905-.532-1.841-1.082-2.012-1.714-.167-.613.357-1.549.863-2.455a6.612,6.612,0,0,0,1.12-3.063,6.435,6.435,0,0,0-1.108-2.968c-.526-.926-1.07-1.883-.893-2.544s1.123-1.223,2.04-1.766a6.441,6.441,0,0,0,2.439-2.027,6.623,6.623,0,0,0,.551-3.213c.012-1.037.022-2.11.472-2.559s1.548-.477,2.6-.49a4.659,4.659,0,0,0,5.241-3.036c.532-.9,1.083-1.837,1.716-2.009a.968.968,0,0,1,.253-.032,5.588,5.588,0,0,1,2.2.893,6.65,6.65,0,0,0,3.064,1.118h0a6.436,6.436,0,0,0,2.975-1.108c.927-.524,1.888-1.068,2.545-.891s1.224,1.122,1.768,2.037a6.438,6.438,0,0,0,2.03,2.435,6.637,6.637,0,0,0,3.22.551c1.038.011,2.111.022,2.561.471s.477,1.547.491,2.6a4.65,4.65,0,0,0,3.039,5.233c.9.532,1.841,1.082,2.012,1.714.167.613-.356,1.549-.863,2.455a6.614,6.614,0,0,0-1.12,3.063h0a6.417,6.417,0,0,0,1.109,2.969C5907.223,2999.612,5907.767,3000.569,5907.591,3001.23Z" transform="translate(-5864.653 -2973.471)" fill="#c29f32"/>
</svg>
