<svg width="18" height="18" viewBox="0 0 18 18" fill="none" xmlns="http://www.w3.org/2000/svg">
<g clip-path="url(#clip0_137_679)">
<path opacity="0.4" d="M12.5829 11.5222C13.1638 11.33 13.8294 11.465 14.2916 11.9272L16.5728 14.2084C17.2257 14.8613 17.2257 15.9199 16.5728 16.5728C15.9199 17.2257 14.8613 17.2257 14.2084 16.5728L11.9272 14.2916C11.465 13.8294 11.33 13.1638 11.5222 12.5829L9.96973 11.0304L11.0304 9.96973L12.5829 11.5222Z" fill="black" fill-opacity="0.25"/>
<path fill-rule="evenodd" clip-rule="evenodd" d="M0.75 6.75C0.75 3.43629 3.43629 0.75 6.75 0.75C10.0637 0.75 12.75 3.43629 12.75 6.75C12.75 10.0637 10.0637 12.75 6.75 12.75C3.43629 12.75 0.75 10.0637 0.75 6.75ZM6.75 2.25C4.26472 2.25 2.25 4.26472 2.25 6.75C2.25 9.23528 4.26472 11.25 6.75 11.25C9.23528 11.25 11.25 9.23528 11.25 6.75C11.25 4.26472 9.23528 2.25 6.75 2.25Z" fill="black" fill-opacity="0.25"/>
</g>
<defs>
<clipPath id="clip0_137_679">
<rect width="18" height="18" fill="white"/>
</clipPath>
</defs>
</svg>
