<svg width="33" height="33" viewBox="0 0 33 33" fill="none" xmlns="http://www.w3.org/2000/svg">
<path d="M3.4375 16.5C3.4375 10.3423 3.4375 7.26342 5.35046 5.35046C7.26342 3.4375 10.3423 3.4375 16.5 3.4375C22.6577 3.4375 25.7366 3.4375 27.6495 5.35046C29.5625 7.26342 29.5625 10.3423 29.5625 16.5C29.5625 22.6577 29.5625 25.7366 27.6495 27.6495C25.7366 29.5625 22.6577 29.5625 16.5 29.5625C10.3423 29.5625 7.26342 29.5625 5.35046 27.6495C3.4375 25.7366 3.4375 22.6577 3.4375 16.5Z" stroke="white" stroke-width="1.5"/>
<path d="M10.3125 23.375C13.5186 20.017 19.4469 19.8589 22.6875 23.375M19.9308 13.0625C19.9308 14.961 18.3895 16.5 16.4884 16.5C14.5872 16.5 13.046 14.961 13.046 13.0625C13.046 11.164 14.5872 9.625 16.4884 9.625C18.3895 9.625 19.9308 11.164 19.9308 13.0625Z" stroke="white" stroke-width="1.5" stroke-linecap="round"/>
</svg>
